<svg xmlns="http://www.w3.org/2000/svg" width="553.224" height="379.62"><g fill="#fff"><path d="M368.747 107.425c-21.988-20.683-46.048-31.966-62.533-37.819-9.559-3.394-17.643-5.364-22.743-6.419a122.898 122.898 0 0 0-6.417-1.163l9.857-26.02 8.121-20.311c1.268-3.015 2.341-5.448 3.19-7.232.818-1.72 1.294-2.551 1.541-2.938.924-.13 2.915-.346 5.902-.346 4.078 0 10.833.413 19.85 2.382 10.203 2.227 21.127 5.944 32.467 11.047 9.87 4.442 18.642 9.402 26.073 14.744 5.931 4.263 11.024 8.777 15.138 13.415 3.652 4.117 5.84 7.572 7.033 9.745a29.24 29.24 0 0 1 1.371 2.816l-38.851 48.099z"/><path d="m305.666 7.178-4.674.213c-.647 1.207-1.949 3.894-4.409 9.778-2.145 5.13-4.847 11.905-8.03 20.135l-8.776 23.141a135.95 135.95 0 0 1 4.1.785c5.16 1.067 13.341 3.06 23.007 6.492 16.272 5.778 39.85 16.792 61.654 36.78l36.734-45.478a31.66 31.66 0 0 0-.924-1.78c-1.17-2.096-3.314-5.431-6.88-9.411-4.027-4.494-9.007-8.874-14.799-13.017-7.275-5.203-15.856-10.043-25.506-14.386-11.214-5.046-22.005-8.719-32.073-10.917-8.843-1.93-15.443-2.336-19.423-2.336m0-4c9.145 0 27.212 1.939 53.138 13.605 44.237 19.907 51.067 42.912 51.067 42.912l-40.932 50.675c-42.88-41.418-94.628-46.697-94.628-46.697s21.801-59.128 24.461-60.015c0 0 2.342-.48 6.894-.48z" fill="#a0c6f4"/></g><path d="M281.909 68.267s50.883 5.139 82.236 33.922" fill="none" stroke="#2a1e17" stroke-linecap="round" stroke-linejoin="round"/><path d="m325.845 65.785 18.982-36.91 19.51 38.492z" fill="#a0c6f4"/><g fill="none" stroke="#2a1e17" stroke-linejoin="round"><path d="m329.538 65.258 18.982-36.91 19.51 38.492z"/><path d="M311.72.936s57.051 5.139 92.515 47.285" stroke-linecap="round"/></g><path d="m340.869 164.502-5.189-3.848c.868-1.158 14.6-15.786 22.547-27.571 0 0-16.077 32.362-17.358 31.419z" fill="#2a1e17"/><path d="M146.334 57.89c1.529 2.549 2.208 1.529 6.625 1.189s10.7 2.888 12.912 8.324 1.529 6.286.34 6.965-9.683 1.7-10.024 3.4" fill="none" stroke="#2a1e17" stroke-linecap="round" stroke-linejoin="round"/><path d="m260.783 334.396-3.958-6.689-14.042 23.4 3.686 2.835zm-93.236-58.035s-7.276-11.83-4.155-17.627l23.212 2.483z" fill="#f9865f"/><path d="m167.547 276.36 1.391 3.195-4.289 16.723a5.725 5.725 0 0 0 1.8 5.756l21.228-31.38a7.3 7.3 0 0 0-1.078-9.437l-4.744-4.406z"/><path d="M156.187 77.767c6.649-.158 15.072-.579 13.387-5.633s-8-17.69-22.323-13.9c0 0-5.054 4.211 1.264 11.793s7.672 7.74 7.672 7.74z" fill="#2a1e33"/><path d="M189.832 261.496s-11.347-33.5-1.746-48.212c7.925-12.14 33.815 7.606 37.362 10.267l18.525-33.455s-4.276-6-14.775-11.866-53.872-23.449-74.254 8.709c-7.533 11.885-7.649 62.889 6.8 82.435z" fill="#7595ec"/><path d="M189.833 261.497s-11.347-33.5-1.746-48.212c7.925-12.14 33.815 7.606 37.362 10.267" fill="none" stroke="#2a1e17" stroke-linecap="round" stroke-linejoin="round"/><path d="M243.973 190.097c-8.425 8.868-33.4 52.071-39.02 72.72-7.513 27.62-4.687 50.526 36.607 95.38l19.96-29.074s-14.034-21.312-11.414-41.403c3.791-29.063 24.473-57.242 34.937-75.116z" fill="#7595ec"/><path d="m247.144 193.852 33.2 26.06 9.922-15.087z" fill="#2a1e17"/><path d="M437.855 166.452q7.767 1.664 11.835 5.917c2.712 2.836 1.48 4.315.493 5.178s-4.808-.123-8.136-3.082-4.192-8.013-4.192-8.013z" fill="#ff8a66"/><path d="M335.68 160.653c.868-1.158 14.6-15.786 22.547-27.571 0 0 24.025 26.92 26.631 27.789.969.323 6.859.245 14.174.169 12.361-.127 28.793-.251 32.43 1.567 5.79 2.895 9.263 4.342 10.711 8.394s2.017 6.7-1.448 6.947c-4.052.29-6.658-4.921-6.658-4.921s-3.311 2-11.868 5.211c0 0-30.786 11.952-51.366 6.172-5.621-1.578-35.153-23.757-35.153-23.757zM149.052 53.132c-2.643 1.007-4.248 2.209-2.718 4.758s2.208 1.529 6.625 1.189 10.7 2.888 12.912 8.324 1.529 6.286.34 6.965-9.683 1.7-10.024 3.4 3.443 6.713 11.257 6.374l1.868-.34 18.813 18.429c2.378 2.378 19.858 14.221 29.487 16.627 7.319 1.83 22.144-.53 31.054-2.268 4.327-.845 7.26-1.542 7.26-1.542s-6.686-12.044-8.046-30.561c0 0-16 2.569-26.626 4.9l-36.867-19.946s-10.533-12.911-15.46-14.61-16.307-3.057-19.875-1.699z" fill="#f9865f"/><path d="m248.667 116.59 7.26-1.542s-8.089-10.2-9.447-28.712c0 0-3.657 3.94-2.519 14.428 1.428 13.179 4.706 15.826 4.706 15.826z" fill="#2a1e17"/><path d="M246.088 84.261s.224 22.629 6.286 32.068l2.175-.869s-28.57 33.422-37.81 55.261c-1.513 3.574 59.317 42.43 68.3 41.885 0 0 29.637-45.234 39.774-58.642l10.893 8.442s21.368-21.639 22.516-29.323c0 0-20.638-25.114-37.523-32.467s-31.973-19.949-50.109-19.608c-15.697.295-24.502 3.253-24.502 3.253z" fill="#fff7c9"/><path d="m335.711 162.406-10.889-8.442 1.735-4.729z" fill="#2a1e17"/><path d="M352.281 72.927c-1.907 5.933-7.415 23.094-13.559 25.213s-12.542-.542-12.542-.542l-6.545 3.349c-.73 2.191-5.9 4.077-12.566 4.334-4.939.19-7.947-6.152-6.484-10.744.67-2.107 3.178-12.5 3.178-12.5s5.3-19.493 10.169-23.518 9.453-8.013 22.459-2.754c19.916 8.052 15.89 17.162 15.89 17.162z" fill="#f9865f"/><path d="M312.8 73.772c-.875 3.642-4.663 10.928-7.14 9.617s-3.352-4.663-1.6-11.075 3.205-20.983 8.16-23.606 7.139.437 7.139.437-2.185-10.637 4.226-12.094c0 0 2.185-1.02 1.312 6.266a9.76 9.76 0 0 1 10.491-5.829c8.015.875 10.784 12.094 10.784 12.094a4.04 4.04 0 0 1 4.225-3.06c3.643 0 9.18 5.391 7.868 11.365 0 0 9.323-2.918 14.281 4.518s4.371 15.591-7.578 18.8c-12.493 3.353-12.385-11.22-14.28-13.114s-3.934-4.08-10.929-1.457-14.279-5.1-14.279-5.1-1.166 9.325-2.332 10.2-3.5 2.04-2.914-2.332 1.312-3.934.874-5.1-2.409-4.843-6.558-1.6c-4.665 3.639-1.75 11.07-1.75 11.07z" fill="#2a1e33"/><path d="M314.783 75.404c-2.779-2.335-4.706-6.449-2.26-10.562s6.448-4.67 7.671-3.113 1.7 4.181.546 7.293" fill="none" stroke="#2a1e33" stroke-linecap="round" stroke-linejoin="round"/><path d="m246.47 353.945 1.391 3.195-4.288 16.725a5.725 5.725 0 0 0 1.8 5.756l21.228-31.38a7.3 7.3 0 0 0-1.078-9.437l-4.744-4.405z"/><g fill="none" stroke-linecap="round" stroke-linejoin="round"><path d="M319.357 49.146s-1.625-5.287-6.5-6.679" stroke="#2a1e33"/><path d="m216.073 169.125 58.81-82.151m24.24 5.748c-2.118 2.755-3.084 14.61 6.666 15.38s15.98-3.513 15.98-3.513M168.928 54.832s6.722 8.9 7.779 12.067M420.63 174.117s4.492 3.7 13.436-1.088c3.244-1.735.935-5.841-3.171-4.814s-8.981-.513-8.981-.513m17.481-.736s4.31 5.027 4.192 8.013m-67.606-8.561s3.9-5.193 8.876-5.547M211.692 97.774s2.275-7.086 9.563-8.387M231.441 205.3l-8.694 16.632s-28.667 48.513-18.94 79.853m53.031-40.828 28.206-48.35s36.968-53.618 40.751-61.183l13.046-24.135m-118.83 46.986s50.158 36.569 65.032 38.331M246.088 84.261s-.045 22.95 6.142 32.359m104.386 12.826c-1.575 9.458-22.516 29.323-22.516 29.323" stroke="#2a1e17"/></g><circle fill="#2a1e17" cx="200.385" cy="244.273" r="2.979"/><g fill="none" stroke="#2a1e17" stroke-linejoin="round"><path d="m479.822 308.273-1.646-11.391 9.717 6.46-5.085 1.109z"/><path d="M157.568 113.796c-18.412-16.247-48.84 24.266 62.5 153.215 64.226 74.385 114.692 81.056 121.526 55.177 12.264-46.429-32.028-58.164-15.547-39.98" stroke-linecap="round"/></g><circle fill="#2a1e17" cx="159.406" cy="116.205" r="2.979"/><circle fill="none" cx="119.4" cy="8.787" r=".809" stroke="#a0c6f4" stroke-width="4"/><circle fill="#fad8b0" cx="495.779" cy="352.042" r="2.809"/><path d="m445.59 225.185-30.2-14.171a3.134 3.134 0 0 1 .069-5.707l56.179-24.719a3.136 3.136 0 0 1 2.5-.011l38.593 16.563z" fill="#2a1e33"/><path d="M443.72 178.612c.077 12.5 1.87 46.572 1.87 46.572l67.142-28.045-1.51-47.416a4.078 4.078 0 0 0-5.766-3.581l-57.807 26.342a6.7 6.7 0 0 0-3.929 6.128z" fill="#c6cbcb"/><path d="m445.591 225.184 67.138-28.045-1.506-47.42s-.446-5.178-5.766-3.581m-27.37 44.964 4.533-10.714m-.001 10.714 4.533-10.714" fill="none" stroke="#2a1e17" stroke-linecap="round" stroke-linejoin="round"/><g fill="#ff6d66"><circle cx="131.509" cy="305.164" r="2.809"/><circle cx="368.345" cy="319.08" r="3.903"/></g><path d="M428.99 116.716h10.163v10.163H428.99z" fill="#ffe1c0"/><path d="m430.367 253.796 3.021 5.232 3.02 5.232h-12.082l3.021-5.232z" fill="#a0c6f4"/><path d="m385.663 68.039 33.839 25.9a1.67 1.67 0 0 0 2.36-.335l5.11-6.925a1.67 1.67 0 0 0-.3-2.3l-33.357-26.691a1.67 1.67 0 0 0-2.4.325l-5.587 7.72a1.67 1.67 0 0 0 .335 2.306z" fill="#fff" stroke="#2a1e17" stroke-linejoin="round"/><path d="m388.168 66.883 8.206 5.758 4.842-5.779-8.208-6.846z" fill="#ff6d66"/><path d="m399.463 74.886 8.217 6.519 4.4-5.419-8.272-6.712z" fill="#fad8b0"/><path d="m410.445 83.911 8.206 5.758 3.904-5.022-7.773-6.5z" fill="#a0c6f4"/><path d="m453.182 31.83 7.71 64.8a2.56 2.56 0 0 0 2.889 2.234l13.056-1.788a2.56 2.56 0 0 0 2.2-2.784l-6.329-65.125a2.56 2.56 0 0 0-2.918-2.285l-14.439 2.112a2.56 2.56 0 0 0-2.169 2.836z" fill="#fff" stroke="#2a1e17" stroke-linejoin="round"/><path d="m457.125 33.345 2.444 15.157 11.514-.857-1.252-16.32z" fill="#ff6d66"/><path d="m460.404 54.29 1.62 15.981 10.651-.952-1.467-16.246z" fill="#91ba83"/><path d="m462.226 75.98 2.444 15.157 9.687-1.074-1.161-15.479z" fill="#fad8b0"/><path d="m436.349 45.627 21.354 62.767a2.035 2.035 0 0 0 2.618 1.26l13.374-4.814a2.038 2.038 0 0 0 1.251-2.53l-20.051-63.389a2.036 2.036 0 0 0-2.649-1.295l-14.677 5.436a2.04 2.04 0 0 0-1.22 2.565z" fill="#fff" stroke="#2a1e17" stroke-linejoin="round"/><path d="m440.686 46.77 5.542 14.317 11.084-3.233-4.619-15.7z" fill="#a0c6f4"/><path d="m448.248 66.576 4.908 15.295 10.22-3.147-4.813-15.586z" fill="#f9865f"/><path d="m454.541 87.412 5.542 14.317 9.252-3.065-4.355-14.9z" fill="#fad8b0"/><rect fill="#7595ec" width="120.287" height="27.041" x="161.36" y="124.909" rx="5.484"/><rect fill="#fff" width="62.9" height="4.115" x="174.176" y="132.87" rx="1.812"/><path d="M174.764 142.316h99.935" fill="none" stroke="#2a1e17" stroke-linecap="round" stroke-linejoin="round"/><path d="m123.634 74.042 1.856 2.032a1.7 1.7 0 0 1-.109 2.4l-3.123 2.852a1.7 1.7 0 0 1-2.4-.109l-1.856-2.032 5.632-5.144z" fill="#91ba83"/><rect fill="none" width="14.116" height="9.731" stroke="#2a1e17" stroke-linejoin="round" rx=".98" transform="rotate(-132.4 76.242 14.194)"/><path d="M89.876 110.305h10.076v9.199H89.876z" fill="#ff6d66"/><path d="M89.876 104.385v5.92h-6.027" fill="none" stroke="#2a1e17" stroke-linecap="round" stroke-linejoin="round"/><path d="M421.793 6.42h10.076v9.199h-10.076z" fill="#fad8b0"/><path d="M421.792.5v5.92h-6.027M149.117 63.285c-104.447-43.3-184.854 40.086 12.031 167.773 15.5 10.055 39.279 13.582 39.279 13.582" fill="none" stroke="#2a1e17" stroke-linecap="round" stroke-linejoin="round"/><circle fill="#2a1e17" cx="53.055" cy="66.194" r="2.979"/><g fill="none" stroke="#2a1e17" stroke-linejoin="round"><path d="m34.102 49.847 3.259-3.129 7.493 4.287 3.766 11.621-11.5-4.813z"/><path d="m37.361 46.718-3.259 3.129-1.825-2.216 3.129-3z"/></g><path d="m66.725 271.119 8.118 41.833a1.67 1.67 0 0 0 1.988 1.316l8.418-1.789a1.67 1.67 0 0 0 1.3-1.917l-7.235-42.111a1.67 1.67 0 0 0-2.009-1.348l-9.3 2.065a1.67 1.67 0 0 0-1.28 1.951z" fill="#fff" stroke="#2a1e17" stroke-linejoin="round"/><path d="m69.365 271.922 2.316 9.754 7.458-1.109-1.6-10.569z" fill="#ff6d66"/><path d="m72.501 285.406 1.819 10.33 6.891-1.129-1.732-10.51z" fill="#fad8b0"/><path d="m74.725 299.445 2.316 9.754 6.257-1.162-1.5-10.025z" fill="#a0c6f4"/><path d="M130.168 186.622c-15.3-11.018-30.34-28.14-23.744-45.728 0 0 10.552-7.035 27.261 1.758l16.708 8.794z" fill="#fad8b0"/><g fill="#fff"><path d="M123.322 260.291c-2.893-1.35-10.329-5.074-18.135-11.043-5.815-4.447-10.696-9.252-14.508-14.281-4.725-6.236-7.809-12.837-9.166-19.621-1.358-6.791-.853-14.855 1.5-23.97 1.903-7.37 5.01-15.425 9.234-23.942 3.928-7.92 8.11-14.781 11.121-19.409-.378 6.145 1.439 12.501 5.438 18.983 5.581 9.045 14.22 16.32 20.485 20.83 8.82 6.351 15.29 9.432 24.279 12.797l-30.249 59.658z"/><path d="M102.015 152.967c-2.577 4.182-5.58 9.396-8.444 15.176-4.172 8.417-7.237 16.368-9.11 23.632-2.291 8.884-2.788 16.716-1.476 23.277 1.31 6.548 4.293 12.933 8.866 18.977 3.721 4.917 8.495 9.622 14.19 13.984 6.729 5.154 13.186 8.616 16.607 10.293l28.831-56.861c-8.318-3.192-14.627-6.316-23.063-12.391-6.375-4.59-15.174-12.004-20.885-21.259-3.095-5.016-4.935-9.971-5.516-14.828m4.41-12.076c-6.596 17.588 8.44 34.71 23.744 45.728 9.181 6.611 15.608 9.564 25.502 13.192l-31.657 62.436S86.2 246.418 80.044 215.64s26.382-74.748 26.382-74.748z" fill="#fad8b0"/></g><path d="M97.868 166.443a37.73 37.73 0 0 0 19.555 27.126m9.463 6.307 17.663 9.462m-44.158-17.663s5.678 12.617 23.971 20.818m-38.48-18.924s.63 13.247 9.462 17.663m10.725-63.714s-1.638 17.012 24.1 39.1m-14.638-35.946s8.2-.63 20.187 8.2M76.966 204.99c-.527 8.437.527 39.02 44.819 58.53" fill="none" stroke="#2a1e17" stroke-linecap="round" stroke-linejoin="round"/><path d="m359.797 187.975-18.787 37.653s12.743 4.688 2.781 19.3c0 0 23.552 9.766 38.962-15.6s-22.956-41.353-22.956-41.353z" fill="#91ba83"/><g fill="#fff"><path d="M316.801 303.247c-9.599 0-19.725-3.933-30.115-11.695l35.349-58.556 20.957 13.197.107.068.117.049c.193.08 4.808 1.962 11.336 1.962 5.461 0 12.409-1.328 19.108-6.366l-26.16 44.756c-.254.373-3.036 4.383-8.012 8.331-3.03 2.404-6.272 4.318-9.636 5.687a34.47 34.47 0 0 1-13.052 2.566z"/><path d="m322.53 235.08-33.851 56.075c9.738 7.031 19.189 10.592 28.123 10.592a32.96 32.96 0 0 0 12.429-2.432c3.223-1.305 6.334-3.133 9.247-5.433 4.718-3.725 7.41-7.521 7.755-8.022l23.086-39.497c-5.282 2.626-10.464 3.409-14.766 3.409-6.823 0-11.706-1.992-11.911-2.077l-.235-.097-19.878-12.518m60.224-5.758-33.981 58.138s-23.535 35.716-64.068 4.471l36.836-61.019 22.25 14.012s23.552 9.766 38.962-15.602z" fill="#96bd89"/></g><g fill="none"><g stroke="#2a1e17" stroke-linecap="round" stroke-linejoin="round"><path d="M341.01 225.628s14.013 4.947 2.781 19.3m-22.686-15.323s19.087 17.482 29.653 17.365 22.957-2.634 30.266-15.238m-57.577 20.49s13.1 11.634 27.751 7.9m-13.99 9.485s6.873 5.152 16.482.281m-48.104 6.892s15.86 15.773 40.827 5.37"/><path d="M314.217 261.392s6.471 4.627 10.525 6.1m38.282-68.588s14.481 4.736 16.215 23.842m-8.931-.231s6.667 10.317-4.6 20.634m-79.661 51.663s36.36 31.141 62.748-5.273"/></g><path d="M23.597 176.222h8.476m463.706-101.95h8.476" stroke="#ff6d66" stroke-linecap="round" stroke-linejoin="round"/><path d="M268.468 16.114h8.476m255.209 109.189 8.343 1.499" stroke="#fad8b0" stroke-miterlimit="10"/><path d="M178.996 329.738h8.476" stroke="#a0c6f4" stroke-linecap="round" stroke-linejoin="round"/></g><g fill="#91ba83"><circle cx="550.414" cy="231.141" r="2.809"/><circle cx="2.809" cy="89.348" r="2.809"/></g></svg>